HIERARCHY
ROOT Hips
{
  OFFSET 363.916 89.4436 202.859
  CHANNELS 6 Xposition Yposition Zposition Zrotation Xrotation Yrotation
  JOINT RightUpLeg
  {
    OFFSET -9.22681 -1.41939 0.059526
    CHANNELS 3 Zrotation Xrotation Yrotation
    JOINT RightLeg
    {
      OFFSET 0.076897 -41.8891 0.179098
      CHANNELS 3 Zrotation Xrotation Yrotation
      JOINT RightFoot
      {
        OFFSET -0.0130714 -43.0092 0.527065
        CHANNELS 3 Zrotation Xrotation Yrotation
        End Site
        {
          OFFSET 0 -7.69 17.5
        }
      }
    }
  }
  JOINT LeftUpLeg
  {
    OFFSET 9.19333 -1.7604 -0.077889
    CHANNELS 3 Zrotation Xrotation Yrotation
    JOINT LeftLeg
    {
      OFFSET -0.0291634 -41.859 -0.15197
      CHANNELS 3 Zrotation Xrotation Yrotation
      JOINT LeftFoot
      {
        OFFSET 0.141288 -40.5593 0.458407
        CHANNELS 3 Zrotation Xrotation Yrotation
        End Site
        {
          OFFSET 0 -7.69 17.5
        }
      }
    }
  }
  JOINT Spine
  {
    OFFSET 0.215607 14.2961 0.04713
    CHANNELS 3 Zrotation Xrotation Yrotation
    JOINT Spine1
    {
      OFFSET 0.127345 9.70675 0.00151561
      CHANNELS 3 Zrotation Xrotation Yrotation
      JOINT Spine2
      {
        OFFSET 0.0493166 10.1169 -0.00299987
        CHANNELS 3 Zrotation Xrotation Yrotation
        JOINT Spine3
        {
          OFFSET 0.0599611 9.70888 0.0197622
          CHANNELS 3 Zrotation Xrotation Yrotation
          JOINT Neck
          {
            OFFSET 0.305156 10.372 0.0704915
            CHANNELS 3 Zrotation Xrotation Yrotation
            JOINT Head
            {
              OFFSET 0.288394 9.47974 0.0406202
              CHANNELS 3 Zrotation Xrotation Yrotation
              End Site
              {
                OFFSET 0 15.95 0
              }
            }
          }
          JOINT RightShoulder
          {
            OFFSET -3.14873 6.92098 0.0285763
            CHANNELS 3 Zrotation Xrotation Yrotation
            JOINT RightArm
            {
              OFFSET -12.7049 -0.00288304 0.0369593
              CHANNELS 3 Zrotation Xrotation Yrotation
              JOINT RightForeArm
              {
                OFFSET -26.4954 -0.160471 0.0134548
                CHANNELS 3 Zrotation Xrotation Yrotation
                JOINT RightHand
                {
                  OFFSET -26.0026 -0.0211725 -0.0218708
                  CHANNELS 3 Zrotation Xrotation Yrotation
                  JOINT RightHandThumb1
                  {
                    OFFSET -2.48905 0.190105 3.12053
                    CHANNELS 3 Zrotation Xrotation Yrotation
                    JOINT RightHandThumb2
                    {
                      OFFSET -3.68274 0 0
                      CHANNELS 3 Zrotation Xrotation Yrotation
                      JOINT RightHandThumb3
                      {
                        OFFSET -2.55832 0 0
                        CHANNELS 3 Zrotation Xrotation Yrotation
                        End Site
                        {
                          OFFSET -2.194 0 0
                        }
                      }
                    }
                  }
                  JOINT RightInHandIndex
                  {
                    OFFSET -3.22368 0.508421 1.97842
                    CHANNELS 3 Zrotation Xrotation Yrotation
                    JOINT RightHandIndex1
                    {
                      OFFSET -5.21684 -0.091368 0.999158
                      CHANNELS 3 Zrotation Xrotation Yrotation
                      JOINT RightHandIndex2
                      {
                        OFFSET -3.61937 0 0
                        CHANNELS 3 Zrotation Xrotation Yrotation
                        JOINT RightHandIndex3
                        {
                          OFFSET -2.0521 0 0
                          CHANNELS 3 Zrotation Xrotation Yrotation
                          End Site
                          {
                            OFFSET -1.805 0 0
                          }
                        }
                      }
                    }
                  }
                  JOINT RightInHandMiddle
                  {
                    OFFSET -3.38211 0.517263 0.756737
                    CHANNELS 3 Zrotation Xrotation Yrotation
                    JOINT RightHandMiddle1
                    {
                      OFFSET -5.17411 -0.084 0.313895
                      CHANNELS 3 Zrotation Xrotation Yrotation
                      JOINT RightHandMiddle2
                      {
                        OFFSET -3.94947 0 0
                        CHANNELS 3 Zrotation Xrotation Yrotation
                        JOINT RightHandMiddle3
                        {
                          OFFSET -2.47579 0 0
                          CHANNELS 3 Zrotation Xrotation Yrotation
                          End Site
                          {
                            OFFSET -1.975 0 0
                          }
                        }
                      }
                    }
                  }
                  JOINT RightInHandRing
                  {
                    OFFSET -3.36516 0.537895 -0.128947
                    CHANNELS 3 Zrotation Xrotation Yrotation
                    JOINT RightHandRing1
                    {
                      OFFSET -4.63474 -0.022105 -0.478947
                      CHANNELS 3 Zrotation Xrotation Yrotation
                      JOINT RightHandRing2
                      {
                        OFFSET -3.44238 0 0
                        CHANNELS 3 Zrotation Xrotation Yrotation
                        JOINT RightHandRing3
                        {
                          OFFSET -2.3881 0 0
                          CHANNELS 3 Zrotation Xrotation Yrotation
                          End Site
                          {
                            OFFSET -1.857 0 0
                          }
                        }
                      }
                    }
                  }
                  JOINT RightInHandPinky
                  {
                    OFFSET -3.16105 0.469368 -1.20179
                    CHANNELS 3 Zrotation Xrotation Yrotation
                    JOINT RightHandPinky1
                    {
                      OFFSET -4.14105 -0.022105 -1.09053
                      CHANNELS 3 Zrotation Xrotation Yrotation
                      JOINT RightHandPinky2
                      {
                        OFFSET -2.75653 0 0
                        CHANNELS 3 Zrotation Xrotation Yrotation
                        JOINT RightHandPinky3
                        {
                          OFFSET -1.74189 0 0
                          CHANNELS 3 Zrotation Xrotation Yrotation
                          End Site
                          {
                            OFFSET -1.645 0 0
                          }
                        }
                      }
                    }
                  }
                }
              }
            }
          }
          JOINT LeftShoulder
          {
            OFFSET 3.26342 6.92519 -0.0174379
            CHANNELS 3 Zrotation Xrotation Yrotation
            JOINT LeftArm
            {
              OFFSET 12.8742 -0.0269705 -0.0666419
              CHANNELS 3 Zrotation Xrotation Yrotation
              JOINT LeftForeArm
              {
                OFFSET 26.5114 0.000826062 -0.052783
                CHANNELS 3 Zrotation Xrotation Yrotation
                JOINT LeftHand
                {
                  OFFSET 25.9941 -0.0689373 0.00603348
                  CHANNELS 3 Zrotation Xrotation Yrotation
                  JOINT LeftHandThumb1
                  {
                    OFFSET 2.48905 0.190105 3.12053
                    CHANNELS 3 Zrotation Xrotation Yrotation
                    JOINT LeftHandThumb2
                    {
                      OFFSET 3.68274 0 0
                      CHANNELS 3 Zrotation Xrotation Yrotation
                      JOINT LeftHandThumb3
                      {
                        OFFSET 2.55832 0 0
                        CHANNELS 3 Zrotation Xrotation Yrotation
                        End Site
                        {
                          OFFSET 2.194 0 0
                        }
                      }
                    }
                  }
                  JOINT LeftInHandIndex
                  {
                    OFFSET 3.22368 0.508421 1.97842
                    CHANNELS 3 Zrotation Xrotation Yrotation
                    JOINT LeftHandIndex1
                    {
                      OFFSET 5.21684 -0.091368 0.999158
                      CHANNELS 3 Zrotation Xrotation Yrotation
                      JOINT LeftHandIndex2
                      {
                        OFFSET 3.61937 0 0
                        CHANNELS 3 Zrotation Xrotation Yrotation
                        JOINT LeftHandIndex3
                        {
                          OFFSET 2.0521 0 0
                          CHANNELS 3 Zrotation Xrotation Yrotation
                          End Site
                          {
                            OFFSET 1.805 0 0
                          }
                        }
                      }
                    }
                  }
                  JOINT LeftInHandMiddle
                  {
                    OFFSET 3.38211 0.517263 0.756737
                    CHANNELS 3 Zrotation Xrotation Yrotation
                    JOINT LeftHandMiddle1
                    {
                      OFFSET 5.17411 -0.084 0.313895
                      CHANNELS 3 Zrotation Xrotation Yrotation
                      JOINT LeftHandMiddle2
                      {
                        OFFSET 3.94947 0 0
                        CHANNELS 3 Zrotation Xrotation Yrotation
                        JOINT LeftHandMiddle3
                        {
                          OFFSET 2.47579 0 0
                          CHANNELS 3 Zrotation Xrotation Yrotation
                          End Site
                          {
                            OFFSET 1.975 0 0
                          }
                        }
                      }
                    }
                  }
                  JOINT LeftInHandRing
                  {
                    OFFSET 3.36516 0.537895 -0.128947
                    CHANNELS 3 Zrotation Xrotation Yrotation
                    JOINT LeftHandRing1
                    {
                      OFFSET 4.63474 -0.022105 -0.478947
                      CHANNELS 3 Zrotation Xrotation Yrotation
                      JOINT LeftHandRing2
                      {
                        OFFSET 3.44238 0 0
                        CHANNELS 3 Zrotation Xrotation Yrotation
                        JOINT LeftHandRing3
                        {
                          OFFSET 2.3881 0 0
                          CHANNELS 3 Zrotation Xrotation Yrotation
                          End Site
                          {
                            OFFSET 1.857 0 0
                          }
                        }
                      }
                    }
                  }
                  JOINT LeftInHandPinky
                  {
                    OFFSET 3.16105 0.469368 -1.20179
                    CHANNELS 3 Zrotation Xrotation Yrotation
                    JOINT LeftHandPinky1
                    {
                      OFFSET 4.14105 -0.022105 -1.09053
                      CHANNELS 3 Zrotation Xrotation Yrotation
                      JOINT LeftHandPinky2
                      {
                        OFFSET 2.75653 0 0
                        CHANNELS 3 Zrotation Xrotation Yrotation
                        JOINT LeftHandPinky3
                        {
                          OFFSET 1.74189 0 0
                          CHANNELS 3 Zrotation Xrotation Yrotation
                          End Site
                          {
                            OFFSET 1.645 0 0
                          }
                        }
                      }
                    }
                  }
                }
              }
            }
          }
        }
      }
    }
  }
}
MOTION
Frames: 2
Frame Time: 0.00833333
1.414244383552879526e+03 8.957191901905261489e+01 2.072533834139359783e+02 2.226288606324998298e+01 9.258077002489777385e+00 -7.468776293270838096e+01 -9.541487169730544338e+00 -5.057347158772716966e+01 -2.208965325597555651e+00 -2.952476382250367681e+00 1.848084063587128867e+01 -1.287834978401238750e+01 1.062603555424377788e+01 7.960295446716177281e+00 2.607255668823576045e+01 1.126874258661820960e+01 -4.179903911959272733e+01 2.174302051878192810e+00 -8.070698407084875292e-01 3.444204024810435527e+01 7.539063428574443115e+00 -7.952411143124669124e+00 -1.692344724192111372e+01 -1.497500367670179422e+01 -4.050270975834738607e+00 1.736805615154419868e+01 1.361695952006511234e+01 -7.350389113898869731e-01 4.200394210302288656e+00 3.329513717210746293e+00 -1.256229486100934434e+00 6.654723561158409240e+00 5.540228211390945567e+00 -6.067782852631418145e-01 -3.832855227013123312e-01 -1.760107099946150999e-01 -1.016489953554588377e+00 1.654888279526874451e+00 -1.143503101071160799e+01 -1.138405256247536634e+01 -1.073136725493745658e+01 4.020142735120280975e+00 1.657634645849567878e+00 -1.450653876112664875e+01 2.155019162190532711e+01 9.329254046964830138e+01 1.309270112126224639e+01 4.630932028369665687e+01 3.091618715269726891e+01 -6.006938326883696533e+01 1.835707559237235387e+01 2.201257592522541273e+01 -1.677880226786427542e+01 -1.319146279948625100e+01 2.818400000000000105e+01 1.072940000000000005e+01 1.915919999999999845e+01 1.905504003086989792e-15 -2.255964664960029629e-15 -1.000000000000000000e+01 -1.424070003044777288e-14 -1.245138659187216295e-15 -1.000000000000000000e+01 9.655448578747698892e-16 2.014448040449272244e-15 -4.833533567945490285e-15 1.998179999999999978e+01 8.718970000000000331e-01 2.396399999999999864e+00 2.400000000000000000e+01 -1.141256198074216808e-14 -3.829888029488571494e-14 2.000000000000000000e+01 -1.326002787983517712e-13 -7.633525637638158947e-13 9.655448578747698892e-16 2.014448040449272244e-15 -4.833533567945490285e-15 2.000000000000000000e+01 -1.548481783024895369e-15 -1.324808819790123774e-14 2.400000000000000000e+01 -1.180889736248870976e-14 -3.468722557813465261e-14 2.000000000000000000e+01 -6.421034381316505957e-14 -3.534234599674095490e-13 9.655448578747698892e-16 2.014448040449272244e-15 -4.833533567945490285e-15 1.997479999999999833e+01 -1.025649999999999951e+00 -2.819380000000000219e+00 2.400000000000000000e+01 4.201025588875390777e-15 -2.412439300737722226e-14 2.000000000000000000e+01 -4.413160787359102070e-14 -2.287749808449259497e-13 9.655448578747698892e-16 2.014448040449272244e-15 -4.833533567945490285e-15 1.978150000000000119e+01 -3.009479999999999933e+00 -8.305149999999999366e+00 2.400000000000000000e+01 2.443272044396873621e-17 -3.979227834995728959e-14 2.000000000000000000e+01 -1.212210142343225495e-14 -7.365959647324537722e-14 1.926104542090685356e+01 -1.517848028817698314e+01 -3.730022214512525380e+01 -6.570686933726869938e+01 3.161275612500433496e+01 -4.796423549961568966e+01 1.259618852773087205e+01 -3.291963390102027631e+01 2.327415337778091597e+01 -1.623467346091631214e+01 -1.002884261160061108e+01 1.002551310659216455e+01 -2.818400000000000105e+01 1.072940000000000005e+01 -1.915919999999999845e+01 2.267439083510652095e-15 -3.803800781250450104e-15 1.000000000000000000e+01 -7.674975582250250121e-15 -3.559213211000520095e-15 1.000000000000000000e+01 -2.932229380268805571e-15 8.307873493430648599e-16 -7.281878636578033566e-16 -1.998179999999999978e+01 8.718970000000000331e-01 -2.396399999999999864e+00 -2.400000000000000000e+01 3.817011260670941823e-16 7.682596272922973926e-15 -2.000000000000000000e+01 5.144277188503312503e-17 6.413001529833850510e-15 -2.932229380268805571e-15 8.307873493430648599e-16 -7.281878636578033566e-16 -2.000000000000000000e+01 -1.287116228291828784e-15 8.806648197412872248e-15 -2.400000000000000000e+01 2.354426661341520773e-15 6.666686434973307428e-15 -2.000000000000000000e+01 -2.674133067858300395e-15 -1.200205187266992883e-15 -2.932229380268805571e-15 8.307873493430648599e-16 -7.281878636578033566e-16 -1.997479999999999833e+01 -1.025649999999999951e+00 2.819380000000000219e+00 -2.400000000000000000e+01 3.104227947730294857e-15 5.919731011482721922e-15 -2.000000000000000000e+01 -3.091837396099920042e-15 1.776404150973729941e-15 -2.932229380268805571e-15 8.307873493430648599e-16 -7.281878636578033566e-16 -1.978150000000000119e+01 -3.009479999999999933e+00 8.305149999999999366e+00 -2.400000000000000000e+01 6.538728364041481887e-15 1.813300224825302867e-15 -2.000000000000000000e+01 -4.019549099945779195e-16 -2.913051691784963424e-15
1.414225442172533576e+03 8.955572654784940312e+01 2.072622780134097411e+02 2.226257761884397013e+01 9.184716437859430371e+00 -7.518448877130063579e+01 -9.315049646010635342e+00 -5.053915566538545079e+01 -1.992027797300517378e+00 -2.970288732640470997e+00 1.840426086570419173e+01 -1.280106337157001661e+01 1.062369606006657285e+01 8.039936623533984417e+00 2.626032617672522207e+01 1.137212330068097899e+01 -4.163427507174635878e+01 2.317752444066502715e+00 -9.908185961216398052e-01 3.450347444804027219e+01 7.738314411512789981e+00 -7.854330910146285483e+00 -1.702528191802345603e+01 -1.476316434946071610e+01 -4.024409186991247722e+00 1.731402690112019727e+01 1.352243604089578177e+01 -7.299053416700405084e-01 4.187297349579743866e+00 3.306347490096488428e+00 -1.247591618433355976e+00 6.634341095152459289e+00 5.502432926825710169e+00 -6.124466326468498423e-01 -3.855808246699905517e-01 -1.573299362012175462e-01 -1.027292507460258575e+00 1.604179693278038776e+00 -1.119006570926201327e+01 -1.147544947494543877e+01 -1.067195961172538254e+01 4.232446463280391313e+00 1.712404230527951210e+00 -1.440432671862673430e+01 2.142678024202785991e+01 9.331479918967103515e+01 1.276829260898038498e+01 4.624260764230142229e+01 3.125214661175980524e+01 -5.980340770051729749e+01 1.891469366016759679e+01 2.206852926454390484e+01 -1.676144993704238573e+01 -1.306001610860801954e+01 2.818400000000000105e+01 1.072940000000000005e+01 1.915919999999999845e+01 1.878057561147491704e-15 -2.240929723206204415e-15 -1.000000000000000000e+01 -1.426306393569428473e-14 -1.238622078763263729e-15 -1.000000000000000000e+01 9.596692722562567764e-16 2.019700733260668129e-15 -4.823442594394499228e-15 1.998179999999999978e+01 8.718970000000000331e-01 2.396399999999999864e+00 2.400000000000000000e+01 -1.139111583642312988e-14 -3.826263528423513360e-14 2.000000000000000000e+01 -1.327630330448621130e-13 -7.643271057728773166e-13 9.596692722562567764e-16 2.019700733260668129e-15 -4.823442594394499228e-15 2.000000000000000000e+01 -1.533261729058563017e-15 -1.322928558592287186e-14 2.400000000000000000e+01 -1.178464603650473663e-14 -3.464112659351315608e-14 2.000000000000000000e+01 -6.402724562543267053e-14 -3.524321219791149042e-13 9.596692722562567764e-16 2.019700733260668129e-15 -4.823442594394499228e-15 1.997479999999999833e+01 -1.025649999999999951e+00 -2.819380000000000219e+00 2.400000000000000000e+01 4.186272834981103197e-15 -2.408398543962667191e-14 2.000000000000000000e+01 -4.402902696827069030e-14 -2.281804092956886841e-13 9.596692722562567764e-16 2.019700733260668129e-15 -4.823442594394499228e-15 1.978150000000000119e+01 -3.009479999999999933e+00 -8.305149999999999366e+00 2.400000000000000000e+01 6.403611732428247600e-17 -3.976695237279799675e-14 2.000000000000000000e+01 -1.208968360019009082e-14 -7.340567806475732195e-14 1.918832300164496019e+01 -1.519577923539177533e+01 -3.741570299570064151e+01 -6.545601286400163588e+01 3.167788801180132552e+01 -4.820565844114379672e+01 1.284198366053089124e+01 -3.256478385083900662e+01 2.322453909986332832e+01 -1.620480948501419860e+01 -1.000867139246077819e+01 1.000288254239993080e+01 -2.818400000000000105e+01 1.072940000000000005e+01 -1.915919999999999845e+01 2.273251199059888616e-15 -3.812575617843627533e-15 1.000000000000000000e+01 -7.673481844967729934e-15 -3.559879976733364638e-15 1.000000000000000000e+01 -2.910914754304314350e-15 8.225734835394797834e-16 -7.231132288318518530e-16 -1.998179999999999978e+01 8.718970000000000331e-01 -2.396399999999999864e+00 -2.400000000000000000e+01 3.780304088525131421e-16 7.684219115566116776e-15 -2.000000000000000000e+01 5.269439604146784574e-17 6.383055813985447561e-15 -2.910914754304314350e-15 8.225734835394797834e-16 -7.231132288318518530e-16 -2.000000000000000000e+01 -1.293724385241236472e-15 8.793233597644765489e-15 -2.400000000000000000e+01 2.348859579292862074e-15 6.639302294959394182e-15 -2.000000000000000000e+01 -2.669294719607831972e-15 -1.228980276512656616e-15 -2.910914754304314350e-15 8.225734835394797834e-16 -7.231132288318518530e-16 -1.997479999999999833e+01 -1.025649999999999951e+00 2.819380000000000219e+00 -2.400000000000000000e+01 3.094270423362902611e-15 5.888655425727111001e-15 -2.000000000000000000e+01 -3.080386408591035458e-15 1.759060790148298836e-15 -2.910914754304314350e-15 8.225734835394797834e-16 -7.231132288318518530e-16 -1.978150000000000119e+01 -3.009479999999999933e+00 8.305149999999999366e+00 -2.400000000000000000e+01 6.534385447165041471e-15 1.813377800103187637e-15 -2.000000000000000000e+01 -4.054414272408839200e-16 -2.932426097749297911e-15
